<svg width="207" height="66" viewBox="0 0 207 66" fill="none" xmlns="http://www.w3.org/2000/svg">
<g clip-path="url(#clip0_326:514)">
<path d="M39.8314 6.3695L33.5571 15.9062C33.5571 15.9062 28.023 11.1378 21.9249 11.1378C15.8268 11.1378 16.1088 18.563 20.1801 19.5132C24.2513 20.4633 40.7479 23.9648 40.7479 35.9824C40.7479 48 28.3755 52.0117 21.9954 52.0117C15.6153 52.0117 2.89042 47.8944 0 42.9853C1.63908 41.4018 8.65364 34.7507 8.65364 34.7507C8.65364 34.7507 15.5977 40.61 21.2023 40.61C26.8069 40.61 27.1946 36.8798 27.1946 35.9296C27.1946 34.9619 26.2958 32.041 19.6866 30.1232C13.0774 28.2053 3.47203 25.1613 3.47203 15.9062C3.47203 6.65103 11.9847 0 21.5372 0C31.0897 0 39.8314 6.3695 39.8314 6.3695Z" fill="#F2233A"/>
<path d="M109.572 6.3695L103.297 15.9062C103.297 15.9062 97.7633 11.1378 91.6652 11.1378C85.5671 11.1378 85.8491 18.563 89.9204 19.5132C93.9916 20.4633 110.488 23.9648 110.488 35.9824C110.488 48 98.1158 52.0117 91.7357 52.0117C85.3556 52.0117 72.6131 47.8944 69.7227 42.9853C71.3617 41.4018 78.3763 34.7507 78.3763 34.7507C78.3763 34.7507 85.3204 40.61 90.925 40.61C96.5296 40.61 96.9173 36.8798 96.9173 35.9296C96.9173 34.9619 96.0184 32.041 89.4092 30.1232C82.8 28.2053 73.1947 25.1613 73.1947 15.9062C73.1947 6.65103 81.7073 0 91.2598 0C100.812 0 109.572 6.3695 109.572 6.3695Z" fill="#F2233A"/>
<path d="M62.3205 1.1788H47.9741V50.2521H62.3205V1.1788Z" fill="#F2233A"/>
<path d="M118.613 1.1788H148.786V12.9149H132.836V20.9207H149.685V31.1964H132.836V39.255H151.765V50.9383H118.613V1.1788Z" fill="#F2233A"/>
<path d="M158.656 14.3225H171.204L178.959 26.0586L171.328 37.9002H158.656L166.622 26.1114L158.656 14.3225Z" fill="#1B191A"/>
<path d="M173.69 2.72705H191.755L207 26.1112L191.491 49.1083H173.69L188.953 26.0056L173.69 2.72705Z" fill="#1B191A"/>
<path d="M0.229492 58.4164H0.793477V65.8769H0.229492V58.4164Z" fill="#1B191A"/>
<path d="M5.16455 58.4164H5.69329L10.8573 64.9091V58.4164H11.386V65.8769H10.963L5.69329 59.2434V65.8769H5.16455V58.4164Z" fill="#1B191A"/>
<path d="M15.2104 64.7859L15.5806 64.3637C16.4089 65.1203 17.1668 65.4722 18.2595 65.4722C19.3875 65.4722 20.1453 64.8387 20.1453 63.9942V63.9766C20.1453 63.1848 19.7223 62.7273 18.0304 62.393C16.2327 62.0235 15.5101 61.4253 15.5101 60.2992V60.2816C15.5101 59.1731 16.5323 58.3285 17.907 58.3285C18.9997 58.3285 19.7047 58.6276 20.4626 59.2434L20.1101 59.6833C19.4051 59.0675 18.7001 58.8388 17.8718 58.8388C16.779 58.8388 16.0388 59.4722 16.0388 60.2464V60.264C16.0388 61.0558 16.4442 61.5308 18.2242 61.9003C19.9515 62.2522 20.6741 62.8681 20.6741 63.959V63.9766C20.6741 65.173 19.6342 66.0176 18.189 66.0176C17.0258 65.9824 16.1093 65.5953 15.2104 64.7859Z" fill="#1B191A"/>
<path d="M26.5254 58.9267H23.917V58.4164H29.6802V58.9267H27.0718V65.8769H26.5254V58.9267Z" fill="#1B191A"/>
<path d="M33.54 58.4164H34.104V65.8769H33.54V58.4164Z" fill="#1B191A"/>
<path d="M40.5542 58.9267H37.9458V58.4164H43.709V58.9267H41.1006V65.8769H40.5542V58.9267Z" fill="#1B191A"/>
<path d="M47.375 62.7801V58.4164H47.939V62.7273C47.939 64.4868 48.8907 65.4898 50.4769 65.4898C51.9926 65.4898 52.962 64.5748 52.962 62.7801V58.4164H53.526V62.7097C53.526 64.8563 52.2746 66 50.4593 66C48.644 66 47.375 64.8739 47.375 62.7801Z" fill="#1B191A"/>
<path d="M59.7652 58.9267H57.1567V58.4164H62.92V58.9267H60.3115V65.8769H59.7652V58.9267Z" fill="#1B191A"/>
<path d="M65.793 62.1644V62.1468C65.793 60.1058 67.2911 58.2934 69.5646 58.2934C71.8205 58.2934 73.3186 60.0882 73.3186 62.1292V62.1468C73.3186 64.1879 71.8205 66.0002 69.547 66.0002C67.2734 66.0002 65.793 64.2055 65.793 62.1644ZM72.737 62.1644V62.1468C72.737 60.2993 71.3976 58.7861 69.547 58.7861C67.6964 58.7861 66.3746 60.2817 66.3746 62.1292V62.1468C66.3746 63.9943 67.714 65.5075 69.5646 65.5075C71.4152 65.5075 72.737 64.0119 72.737 62.1644Z" fill="#1B191A"/>
<path d="M82.1128 64.7859L82.4829 64.3637C83.3113 65.1203 84.0691 65.4722 85.1618 65.4722C86.2898 65.4722 87.0476 64.8387 87.0476 63.9942V63.9766C87.0476 63.1848 86.6247 62.7273 84.9327 62.393C83.135 62.0235 82.4124 61.4253 82.4124 60.2992V60.2816C82.4124 59.1731 83.4346 58.3285 84.8093 58.3285C85.9021 58.3285 86.607 58.6276 87.3649 59.2434L87.0124 59.6833C86.3074 59.0675 85.6024 58.8388 84.7741 58.8388C83.6814 58.8388 82.9411 59.4722 82.9411 60.2464V60.264C82.9411 61.0558 83.3465 61.5308 85.1266 61.9003C86.8538 62.2522 87.5764 62.8681 87.5764 63.959V63.9766C87.5764 65.173 86.5365 66.0176 85.0913 66.0176C83.9281 65.9824 83.0116 65.5953 82.1128 64.7859Z" fill="#1B191A"/>
<path d="M91.4009 62.7801V58.4164H91.9649V62.7273C91.9649 64.4868 92.9166 65.4898 94.5028 65.4898C96.0185 65.4898 96.9878 64.5748 96.9878 62.7801V58.4164H97.5518V62.7097C97.5518 64.8563 96.3005 66 94.4852 66C92.6698 66 91.4009 64.8739 91.4009 62.7801Z" fill="#1B191A"/>
<path d="M101.712 58.4164H104.426C106.065 58.4164 107.193 59.261 107.193 60.7038V60.7214C107.193 62.2874 105.836 63.0968 104.285 63.0968H102.276V65.8769H101.712V58.4164ZM104.32 62.5865C105.713 62.5865 106.647 61.8651 106.647 60.7566V60.739C106.647 59.5601 105.73 58.9443 104.391 58.9443H102.276V62.6041H104.32V62.5865Z" fill="#1B191A"/>
<path d="M110.947 58.4164H116.269V58.9267H111.511V61.8651H115.793V62.3754H111.511V65.3666H116.322V65.8769H110.947V58.4164Z" fill="#1B191A"/>
<path d="M120.182 58.4164H123.319C124.235 58.4164 124.975 58.698 125.416 59.1554C125.769 59.5074 125.98 60 125.98 60.5455V60.5631C125.98 61.8123 125.046 62.5162 123.795 62.6921L126.262 65.8769H125.557L123.178 62.7801H120.728V65.8769H120.182V58.4164ZM123.266 62.2874C124.517 62.2874 125.451 61.654 125.451 60.5807V60.5631C125.451 59.5601 124.658 58.9267 123.301 58.9267H120.746V62.2874H123.266Z" fill="#1B191A"/>
<path d="M130.069 58.4164H130.616V65.8769H130.069V58.4164Z" fill="#1B191A"/>
<path d="M134.687 62.1644V62.1468C134.687 60.1058 136.185 58.2934 138.459 58.2934C140.715 58.2934 142.213 60.0882 142.213 62.1292V62.1468C142.213 64.1879 140.715 66.0002 138.441 66.0002C136.167 66.0002 134.687 64.2055 134.687 62.1644ZM141.631 62.1644V62.1468C141.631 60.2993 140.292 58.7861 138.441 58.7861C136.59 58.7861 135.269 60.2817 135.269 62.1292V62.1468C135.269 63.9943 136.608 65.5075 138.459 65.5075C140.292 65.5075 141.631 64.0119 141.631 62.1644Z" fill="#1B191A"/>
<path d="M146.178 58.4164H149.315C150.232 58.4164 150.972 58.698 151.413 59.1554C151.765 59.5074 151.977 60 151.977 60.5455V60.5631C151.977 61.8123 151.043 62.5162 149.791 62.6921L152.259 65.8769H151.554L149.174 62.7801H146.725V65.8769H146.161V58.4164H146.178ZM149.263 62.2874C150.514 62.2874 151.448 61.654 151.448 60.5807V60.5631C151.448 59.5601 150.655 58.9267 149.298 58.9267H146.742V62.2874H149.263Z" fill="#1B191A"/>
</g>
<defs>
<clipPath id="clip0_326:514">
<rect width="207" height="66" fill="white"/>
</clipPath>
</defs>
</svg>
